<?xml version="1.0" encoding="utf-8"?>

<!-- Generator: Adobe Illustrator 14.0.0, SVG Export Plug-In  -->
<!DOCTYPE svg PUBLIC "-//W3C//DTD SVG 1.1//EN" "http://www.w3.org/Graphics/SVG/1.1/DTD/svg11.dtd" [
	<!ENTITY ns_flows "http://ns.adobe.com/Flows/1.0/">
]>
<svg version="1.1"
	 xmlns="http://www.w3.org/2000/svg" xmlns:xlink="http://www.w3.org/1999/xlink" xmlns:a="http://ns.adobe.com/AdobeSVGViewerExtensions/3.0/"
	 width="200" height="200" viewBox="0 0 100 100"
	 xml:space="preserve">
<defs>
</defs>
<style>
	<!-- .s0{fill:#666;} -->

	@keyframes loader {
  0%     {  fill: #f7ab35; }
  16.6%  {  fill: #d86043; }
  33.33% {  fill: #f0951f; }
  49.8%  {  fill: #44b57d; }
  66.4%  {  fill: #3a9fd3; }
  83%    {  fill: #687480; }
  100%   {  fill: #f7ab35; }
}

@keyframes rebond {
0% {
			 transform: scale(1);
	 }
	 50% {
			 transform: scale(.9);
	 }
	 100% {
			 transform: scale(1);
	 }
	 }



.s1{
animation: loader 4000ms infinite;


}
</style>
<path fill="#f7ab35" class="s1" d="M35.336,27.604c0.249,0.564,0.581,1.059,0.999,1.477s0.904,0.75,1.459,0.998
	c0.553,0.246,1.15,0.368,1.789,0.368h5.351c0.783-2.316,1.212-4.794,1.212-7.376C46.146,10.331,35.815,0,23.073,0
	C10.331,0,0,10.331,0,23.071c0,12.744,10.331,23.074,23.073,23.074c8.115,0,15.248-4.193,19.362-10.53h-2.853
	c-1.354,0-2.628-0.258-3.821-0.774c-1.193-0.518-2.231-1.219-3.119-2.105c-0.887-0.885-1.581-1.924-2.085-3.119
	c-0.137-0.322-0.251-0.651-0.35-0.986v6.985h-5.169v-9.782v-0.038c0-0.638-0.123-1.236-0.37-1.788
	c-0.246-0.556-0.577-1.042-0.996-1.46s-0.912-0.75-1.477-0.996c-0.567-0.249-1.169-0.37-1.81-0.37c-0.64,0-1.236,0.122-1.79,0.37
	c-0.554,0.246-1.039,0.578-1.458,0.996s-0.751,0.91-0.997,1.478c-0.246,0.564-0.369,1.168-0.369,1.809v9.782h-5.169V10.844h5.169
	v6.313c1.402-0.763,2.939-1.144,4.614-1.144c1.353,0,2.628,0.252,3.82,0.756c1.193,0.504,2.234,1.2,3.12,2.085
	c0.887,0.887,1.588,1.927,2.104,3.12c0.146,0.334,0.265,0.679,0.369,1.026V10.844h5.169v14.951
	C34.969,26.437,35.091,27.039,35.336,27.604 M19.15,24.576c0.332-0.319,0.732-0.479,1.2-0.479c0.492,0,0.911,0.159,1.255,0.479
	c0.343,0.321,0.517,0.728,0.517,1.219c0,0.469-0.174,0.874-0.517,1.219c-0.345,0.345-0.764,0.517-1.255,0.517
	c-0.467,0-0.868-0.172-1.2-0.517s-0.499-0.75-0.499-1.219C18.651,25.304,18.818,24.897,19.15,24.576"/>
</svg>
